<svg data-v-fde0c5aa="" xmlns="http://www.w3.org/2000/svg" viewBox="0 0 300 300" class="iconAbove"><!----><defs data-v-fde0c5aa=""><!----></defs><rect data-v-fde0c5aa="" fill="transparent" x="0" y="0" width="300px" height="300px" class="logo-background-square"></rect><defs data-v-fde0c5aa=""><!----></defs><g data-v-fde0c5aa="" id="26cca37f-6f35-4ef3-8db3-414912d6a05a" fill="#303030" transform="matrix(2.9260671192088044,0,0,2.9260671192088044,59.92101964705239,181.79406187498003)"><path d="M0.85 10.50L0.85-0.42L7.25-0.42L7.25 1.22L2.73 1.22L2.73 4.12L6.55 4.12L6.55 5.74L2.73 5.74L2.73 10.50L0.85 10.50ZM11.98 2.90L11.98 2.90L11.98 2.90Q12.03 2.90 12.10 2.91L12.10 2.91L12.10 2.91Q12.18 2.91 12.19 2.91L12.19 2.91L12.19 4.68L11.89 4.68L11.89 4.68Q10.68 4.68 10.16 5.46L10.16 5.46L10.16 10.50L8.34 10.50L8.34 5.18L8.22 3.08L9.83 3.08L9.98 3.98L9.98 3.98Q10.72 2.90 11.98 2.90ZM19.91 6.61L19.91 7.46L15.01 7.46L15.01 7.46Q15.11 9.27 16.67 9.27L16.67 9.27L16.67 9.27Q17.37 9.27 17.78 8.93L17.78 8.93L17.78 8.93Q18.19 8.58 18.19 8.12L18.19 8.12L19.91 8.12L19.91 8.18L19.91 8.18Q19.91 9.23 19.05 9.95L19.05 9.95L19.05 9.95Q18.19 10.68 16.66 10.68L16.66 10.68L16.66 10.68Q14.94 10.68 14.06 9.66L14.06 9.66L14.06 9.66Q13.19 8.64 13.19 6.97L13.19 6.97L13.19 6.61L13.19 6.61Q13.19 4.94 14.06 3.92L14.06 3.92L14.06 3.92Q14.92 2.90 16.59 2.90L16.59 2.90L16.59 2.90Q18.23 2.90 19.07 3.92L19.07 3.92L19.07 3.92Q19.91 4.94 19.91 6.61L19.91 6.61ZM16.55 4.31L16.55 4.31L16.55 4.31Q15.12 4.31 15.01 6.12L15.01 6.12L18.07 6.12L18.07 6.12Q17.99 4.31 16.55 4.31ZM23.09 10.50L21.27 10.50L21.27 3.08L23.09 3.08L23.09 10.50ZM21.18-0.18L23.17-0.18L23.17 1.79L21.18 1.79L21.18-0.18ZM29.19 10.39L29.19 10.39L29.19 9.35L29.19 9.35Q28.48 10.21 27.22 10.21L27.22 10.21L27.22 10.21Q25.79 10.21 25.11 9.28L25.11 9.28L25.11 9.28Q24.43 8.36 24.43 6.73L24.43 6.73L24.43 6.37L24.43 6.37Q24.43 4.80 25.12 3.85L25.12 3.85L25.12 3.85Q25.80 2.90 27.22 2.90L27.22 2.90L27.22 2.90Q28.66 2.90 29.36 3.99L29.36 3.99L29.51 3.08L31.12 3.08L31.01 5.18L31.01 10.42L31.01 10.42Q31.01 13.48 27.75 13.48L27.75 13.48L27.75 13.48Q26.07 13.48 25.32 12.74L25.32 12.74L25.32 12.74Q24.57 12.00 24.57 10.77L24.57 10.77L24.57 10.50L26.29 10.50L26.29 10.50Q26.29 11.23 26.61 11.61L26.61 11.61L26.61 11.61Q26.94 11.98 27.71 11.98L27.71 11.98L27.71 11.98Q28.49 11.98 28.84 11.61L28.84 11.61L28.84 11.61Q29.19 11.23 29.19 10.39ZM29.19 7.78L29.19 7.78L29.19 5.33L29.19 5.33Q28.64 4.48 27.72 4.48L27.72 4.48L27.72 4.48Q27.01 4.48 26.63 4.99L26.63 4.99L26.63 4.99Q26.25 5.50 26.25 6.37L26.25 6.37L26.25 6.73L26.25 6.73Q26.25 8.62 27.72 8.62L27.72 8.62L27.72 8.62Q28.63 8.62 29.19 7.78ZM32.62-0.70L34.44-0.70L34.44 3.84L34.44 3.84Q35.24 2.90 36.68 2.90L36.68 2.90L36.68 2.90Q37.83 2.90 38.40 3.61L38.40 3.61L38.40 3.61Q38.96 4.33 38.96 5.42L38.96 5.42L38.96 10.50L37.16 10.50L37.16 5.71L37.16 5.71Q37.16 5.15 36.86 4.82L36.86 4.82L36.86 4.82Q36.57 4.48 35.98 4.48L35.98 4.48L35.98 4.48Q34.96 4.48 34.44 5.33L34.44 5.33L34.44 10.50L32.62 10.50L32.62-0.70ZM42.97 0.98L42.97 3.08L45.02 3.08L45.02 4.68L42.97 4.68L42.97 7.88L42.97 7.88Q42.97 8.58 43.26 8.83L43.26 8.83L43.26 8.83Q43.55 9.09 44.17 9.09L44.17 9.09L44.17 9.09Q44.69 9.09 44.88 8.99L44.88 8.99L44.88 10.50L44.88 10.50Q44.52 10.68 43.74 10.68L43.74 10.68L43.74 10.68Q41.15 10.68 41.15 8.08L41.15 8.08L41.15 4.68L40.01 4.68L40.01 3.08L41.15 3.08L41.15 0.98L42.97 0.98ZM46.44 10.50L46.44-0.42L52.93-0.42L52.93 1.22L48.31 1.22L48.31 4.12L52.23 4.12L52.23 5.74L48.31 5.74L48.31 8.86L52.93 8.86L52.93 10.50L46.44 10.50ZM55.78 6.71L53.76 3.08L55.87 3.08L57.25 5.75L58.60 3.08L60.72 3.08L58.70 6.71L60.72 10.50L58.65 10.50L57.23 7.64L55.83 10.50L53.76 10.50L55.78 6.71Z"></path></g><defs data-v-fde0c5aa=""><!----></defs><g data-v-fde0c5aa="" id="fdc461e3-fb6e-4fd9-8494-9492764ad730" stroke="none" fill="#2A4354" transform="matrix(2.6000519724744247,0,0,2.6000519724744247,20.00000000000003,-9.826411935419202)"><path d="M53.918 59.748l-5.201.002a3.16 3.16 0 0 1 1.883 1.42l1.434.002a3.171 3.171 0 0 1 1.884-1.424zM66.267 34.072H.884v21.883H0v1.041h66.267V34.072zm-51.24 8.844l-.805.612.389.936-.935.383.133 1.004-1.004.129-.129 1.005-1.003-.135-.384.936-.935-.389-.614.803-.801-.619-.802.619-.614-.804-.934.389-.386-.935-1.001.135-.13-1.005-1.003-.129.133-1.004-.936-.383.389-.936-.804-.612.618-.804-.618-.801.804-.611-.389-.936.936-.386-.133-1.001 1.003-.128.13-1.005 1.001.135.386-.936.934.39.614-.804.802.616.801-.616.614.804.935-.39.384.936 1.003-.135.129 1.005 1.004.128-.133 1.001.935.386-.389.936.805.612-.618.801.618.803zM53.918 59.748h1.658c-.266-.072-.54-.121-.829-.121s-.561.049-.829.121z"></path><path d="M48.717 59.75l5.201-.002c.268-.072 1.393-.072 1.658 0h10.703v-1.402L0 58.348v.871c.22.484.401.531.937.531h1.141l.952 3.793h.107c.333 1.398 1.584 2.445 3.085 2.445s2.752-1.047 3.085-2.445h.439c.333 1.398 1.584 2.445 3.085 2.445s2.752-1.047 3.085-2.445h.129l.64-3.793h30.372c.267-.074 1.394-.074 1.66 0zM7.365 63.543c-.248.381-.656.648-1.143.648s-.896-.268-1.143-.648c-.14-.217-.242-.459-.242-.736 0-.762.622-1.385 1.385-1.385s1.385.623 1.385 1.385c0 .277-.102.519-.242.736zm6.61 0c-.248.381-.656.648-1.143.648s-.896-.268-1.143-.648c-.14-.217-.242-.459-.242-.736 0-.762.622-1.385 1.385-1.385s1.385.623 1.385 1.385c0 .277-.102.519-.242.736z"></path><path d="M99.09 58.268v-3.639c-.214-.684-.214-.684-.969-1.184l-8.884-1.076-.606-3.2h.731s-.147-.879-.941-1.941l-.816-.046c-.697-1.204-2.008-3.013-5.542-4.77 0 0-8.055-3.201-13.438-3.738-.997.119-.971 1.061-.971 2.369v20.16l-10.187-.021a3.18 3.18 0 0 0-1.892-1.434h-1.658a3.171 3.171 0 0 0-1.884 1.424l-1.434-.002a3.16 3.16 0 0 0-1.883-1.42h-1.659a3.174 3.174 0 0 0-1.877 1.408l-3.246-.006v.922c0 1.307.433 1.992.969 1.992h2.065c.488 1.129 1.61 1.922 2.918 1.922s2.43-.793 2.918-1.922h1.024a3.18 3.18 0 0 0 2.917 1.922 3.18 3.18 0 0 0 2.919-1.922H90.69a3.175 3.175 0 0 0 5.834 0h1.239c.431 0 .88-.48 1.007-.955 0 0 1.228.135 1.228-2.291.002-2.773-.908-2.552-.908-2.552zm-50.639 5.798c-.173.078-.361.125-.563.125s-.39-.047-.562-.125a1.383 1.383 0 0 1-.823-1.26c0-.762.622-1.385 1.385-1.385s1.385.623 1.385 1.385c0 .563-.34 1.044-.822 1.26zm6.86 0c-.173.078-.362.125-.563.125s-.389-.047-.562-.125a1.383 1.383 0 0 1-.823-1.26c0-.762.622-1.385 1.385-1.385.765 0 1.387.623 1.387 1.385a1.386 1.386 0 0 1-.824 1.26zm28.793-11.949v-1.305c0-.721-.104-1.303.615-1.303 0 0 1.514-.016 1.953 0 .439.017.926-.096 1.025.464l.378 2.145h-3.971zm9.505 12.074a1.35 1.35 0 0 1-.563-.125 1.383 1.383 0 0 1-.823-1.26 1.388 1.388 0 0 1 2.773 0c0 .562-.339 1.043-.822 1.26a1.354 1.354 0 0 1-.565.125z"></path><path d="M47.888 59.627c-.289 0-.563.049-.83.123h1.659a3.071 3.071 0 0 0-.829-.123z"></path></g><!----></svg>